<?xml version="1.0" encoding="UTF-8"?><svg id="Layer_1" xmlns="http://www.w3.org/2000/svg" viewBox="0 0 2246.5 1790.81"><defs><style>.cls-1{stroke-width:11px;}.cls-1,.cls-2,.cls-3,.cls-4{fill:none;stroke:#000;stroke-miterlimit:10;}.cls-2{stroke-width:8px;}.cls-3{stroke-width:6px;}.cls-4{stroke-width:12px;}</style></defs><path class="cls-4" d="m1675.11,1558.52c-36.4,130.53-156.17,226.3-298.31,226.3-171.02,0-309.66-138.64-309.66-309.66,0-53.97,13.81-104.71,38.08-148.89"/><path class="cls-4" d="m1192.59,1226.22c51.48-38.16,115.21-60.73,184.21-60.73,171.02,0,309.66,138.64,309.66,309.66,0,.47,0,.94,0,1.42"/><path class="cls-4" d="m1374.21,1090.05c0-63.16-.38-136.94.05-200.1"/><path class="cls-4" d="m1999.23,600.63c1.93,80.4-1.49,160.63,1.93,240.86,1.71,75.11-3.41,148.52-3.41,223.63,0,6.83-1.71,11.95-3.41,17.07-206.56,5.12-411.41,0-617.96,1.71"/><polyline class="cls-1" points="1376.8 777.89 1376.8 541.05 1942.63 541.05"/><path class="cls-2" d="m1031.25,177.75c-4.14,19.9-10.39,40.79-22.28,57.28s-26.27,29.62-43.13,39.8c-10.38,6.27-21.54,11.24-33.15,14.74"/><path class="cls-2" d="m763.9,76.36c10.82-18.14,26.79-34.92,44.21-46.87,17.91-12.29,38.6-20.45,60.06-23.78,23-3.56,46.84-1.53,68.9,5.88,20.11,6.75,38.67,18,54.03,32.62,15.18,14.45,27.2,32.19,34.97,51.66,1.1,2.76,2.82,6.45,3.76,9.27"/><path class="cls-2" d="m850.71,290.25c-61.22-17.33-106.07-73.62-106.07-140.38,0-.92,0-1.84.03-2.75"/><path class="cls-2" d="m850.72,361.11c0,.3,0-49.32-.01-73.59"/><path class="cls-2" d="m932.69,286.97c0,27.72,0,58.03,0,85.74"/><path class="cls-2" d="m537.93,199.87c30.1,48.62,31.38,110.05.62,156.8"/><path class="cls-2" d="m269.97,303.65c-2.27-15.89.44-34.14,2.44-50.14,2-15,7-28,13-42,11-22,27-42,49-55l3-3c45-28,101-31,146.66-6.4"/><path class="cls-2" d="m476.08,409.77c-58.67,28.75-134.63,7.78-174.21-44.19"/><path class="cls-2" d="m520.89,463.34c-15.19-18.05-32.3-36.1-47.4-54.15"/><path class="cls-2" d="m522.03,464.7c-.38-.45-.76-.91-1.14-1.36"/><path class="cls-2" d="m537.93,353.55c17.77,21.27,36.16,45.66,53.93,66.93"/><path class="cls-2" d="m195.6,517.65c20.75,6.56,39.78,18.22,55.38,33.36s28.01,33.92,35.67,54.41c4.82,12.88,7.78,26.46,8.61,40.19"/><path class="cls-2" d="m54.45,768.16c-6.38-5.54-12.22-12.32-17.56-18.87-11.61-14.25-20.6-30.66-26.19-48.17-6.13-19.21-8.02-39.69-5.83-59.71s8.39-39.52,18.36-56.97c9.13-15.98,21.43-30.08,35.85-41.5,14.42-11.42,30.95-20.18,48.55-25.54,5.16-1.57,10.4-2.85,15.7-3.83"/><path class="cls-2" d="m278.48,725.85c-8.67,16.19-20.5,30.64-34.53,42.49-14.02,11.85-30.23,21.12-47.63,27-19.11,6.46-39.58,8.71-59.66,6.88-7.11-.65-15.04-1.04-21.99-2.7"/><path class="cls-2" d="m348.46,741.07c-23.57-5.14-48.82-10.1-72.39-15.22"/><path class="cls-2" d="m293.02,645.6c27.08,5.9,52.78,11.81,79.86,17.71"/><path class="cls-2" d="m128.1,986.28c56.17-21.84,119.11-6.45,159.08,36.15"/><path class="cls-2" d="m186.04,1268.56c-27.51.79-54.02-4.3-77.63-20.04-3-2-7-3-11-6-2-2-4-3-7-5-28-23-46-51-53-87-5-27-3-54,6-79,7-19,18-35,31.45-49.53"/><path class="cls-2" d="m324.25,1095.56c8.15,41.95-2.85,85.95-30.85,119.95-13.65,16.17-30.1,29.03-48.34,38.04"/><path class="cls-2" d="m388.39,1063.68c-21.6,10.73-44.5,22.45-66.1,33.19"/><path class="cls-2" d="m285.42,1024.33c24.82-12.32,48.91-25.3,73.73-37.62"/><path class="cls-2" d="m400.81,1414.43c9.33-19.64,16.71-34.14,28.59-45.92,28.68-28.4,70-40,109.98-37.76"/><path class="cls-2" d="m616.21,1359.38c50.99,38.04,72.79,106.64,48.95,169-28.77,75.26-113.09,112.95-188.35,84.18-61.37-23.46-97.75-83.85-93.5-146.15"/><path class="cls-2" d="m641.75,1292.47c-8.61,22.53-16.21,47.35-24.8,69.89"/><path class="cls-2" d="m536.95,1332.12c9.9-25.89,20.48-51.13,30.37-77.02"/><path class="cls-2" d="m1211.66,185.67c36.84-20.64,83.75-23.16,123.75-7.16,12,5,23,11,34,19,14,11,25,23,35,38,12,20,20,41,22,64,3,33-4,64-22,93-2,2-4,4-5,7l-3,3c-1,1-1,3-2,4-26,30-60,50-99,53-21,1-44.74,1.05-63.92-6.07"/><path class="cls-2" d="m1167.02,408.19c-15.02-18.71-25.21-43.91-29.61-67.48-4.38-23.5-2.87-47.89,4.38-70.67,4.06-12.77,8.61-26.07,15.97-37.27"/><path class="cls-2" d="m1123.66,465.55c13.98-19.66,29.84-41.03,43.8-60.7"/><path class="cls-2" d="m1234.23,452.39c-16.06,22.59-35.18,47.92-51.24,70.51"/><line class="cls-2" x1="1303.4" y1="775.39" x2="1379.32" y2="775.39"/><line class="cls-2" x1="1305.1" y1="894.71" x2="1379.32" y2="894.71"/><line class="cls-2" x1="1159.06" y1="1191.91" x2="1196.2" y2="1226.22"/><line class="cls-2" x1="1055.37" y1="1268.24" x2="1105.36" y2="1329.14"/><path class="cls-3" d="m1048.61,675.04c17.74,25.06,31.46,53.16,40.24,83.36"/><path class="cls-3" d="m874.55,561.86c44.98,8.93,86.09,28.62,120.52,56.28"/><path class="cls-3" d="m689.75,588.36c35.33-18.52,75.1-29.72,117.3-31.59"/><path class="cls-3" d="m562.2,725.85c19.41-44.99,50.27-83.89,88.9-113.02"/><path class="cls-3" d="m554.95,929.11c-10.08-28.91-15.56-59.98-15.56-92.33,0-26,3.54-51.17,10.16-75.05"/><path class="cls-3" d="m692.32,1086.53c-52.05-26.59-94.69-68.98-121.6-120.84"/><path class="cls-3" d="m819.68,1117.07c-32.44,0-63.59-5.51-92.58-15.65"/><line class="cls-3" x1="1088.84" y1="758.4" x2="1279.96" y2="681.52"/><line class="cls-3" x1="819.68" y1="1117.07" x2="819.68" y2="1327.97"/><line class="cls-3" x1="461.57" y1="1165.49" x2="622.67" y2="1036.13"/><line class="cls-3" x1="337.76" y1="844.05" x2="539.39" y2="844.65"/><line class="cls-3" x1="442.59" y1="544.46" x2="599.51" y2="663.31"/><line class="cls-3" x1="701.95" y1="375.82" x2="759.13" y2="563.07"/><path class="cls-2" d="m1982.79,484.51c-39.84-49.6-43.77-121.46-5.08-175.87,46.69-65.66,137.77-81.03,203.43-34.34,65.66,46.69,81.03,137.77,34.34,203.43-38.2,53.71-106.1,73.77-165.48,53.74"/><path class="cls-2" d="m1939.28,543.75c12.83-18.04,30.91-45.61,43.73-63.66"/><path class="cls-2" d="m2054.6,530.12c-16.06,22.59-41.7,51.04-57.76,73.63"/><path class="cls-2" d="m1756.55,1476.54c17.33-61.22,73.62-106.07,140.38-106.07,80.57,0,145.88,65.31,145.88,145.88,0,80.57-65.31,145.88-145.88,145.88-65.91,0-121.61-43.71-139.7-103.72"/><path class="cls-2" d="m1686.46,1476.57c23.61,0,47.22,0,70.83-.02"/><path class="cls-2" d="m1757.24,1558.51c-27.38,0-54.75,0-82.13,0"/><path class="cls-2" d="m121.69,514.97c37.01-79.05,88.52-152.07,149.04-213.52"/><path class="cls-2" d="m74.61,1024.26c-14.86-59.43-23.2-123.44-23.2-187.48,0-23.36.09-47.9,2.15-70.73"/><path class="cls-2" d="m384,1468.53c-77.55-53.2-146.79-123.53-200.07-201.02"/><path class="cls-2" d="m1028.1,103.41c20.28,5.26,40.31,13.1,59.31,20.1,11,4,19.97,8.36,30.97,13.36,7,3,13.29,5.97,20.03,9.64,18.1,9.87,36,17,53,26,8,4,15,9,22.3,13.16"/><path class="cls-2" d="m481.8,147.12c84.07-39.91,186.48-65.35,284.03-72"/><path class="cls-2" d="m192.78,519.04c28.96-54.64,67.28-105.64,109.09-150.49"/><path class="cls-2" d="m126.88,989.07c-9.25-45.4-12.89-95.18-12.89-143.31,0-15.8-2.28-33.25-1.25-48.79"/><path class="cls-2" d="m400.81,1411.85c-59.26-43.83-115.9-99.19-158.85-159.12"/><path class="cls-2" d="m1032.27,180.39c34.35,9.96,67.63,23.47,99.45,39.75,9.25,4.73,18.37,10.18,27.38,15.37"/><path class="cls-2" d="m540.34,201.28c24.1-12.3,50-20.46,75.95-27.84,26.86-7.63,54-14.34,81.52-19.15,15.88-2.78,33.04-7.45,49.11-8.88"/><path class="cls-4" d="m1058.85,1268.66c-69.28,38.28-152.66,59.31-237.59,59.31-64.71,0-125.62-12.61-182.07-35.5"/><path class="cls-4" d="m1303.4,889.95c-11.14,117.33-65.55,226.49-145.44,304.41"/><path class="cls-4" d="m1181.15,521.14c63.04,70.1,106.86,161.85,120.77,259.53"/><path class="cls-4" d="m930.17,372.71c72.28,16.8,138.57,49.8,194.69,94.93"/><path class="cls-4" d="m588.75,420.47c68.67-36.98,149.2-59.37,232.51-59.37,10.9,0,21.04.31,31.76,1.02"/><path class="cls-4" d="m370.3,664.05c32.3-79.5,86.38-148.64,153.49-200.72"/><path class="cls-4" d="m357.29,989.07c-14.03-45.19-21.41-94.75-21.41-144.53,0-35.62,3.36-72.89,10.7-106.31"/><path class="cls-4" d="m569.06,1257.67c-77.51-47.04-140.74-115.11-181.71-196.25"/></svg>