<?xml version="1.0" encoding="utf-8"?>
<!-- Generator: Adobe Illustrator 27.3.1, SVG Export Plug-In . SVG Version: 6.00 Build 0)  -->
<svg version="1.1" id="Layer_1" xmlns="http://www.w3.org/2000/svg" xmlns:xlink="http://www.w3.org/1999/xlink" x="0px" y="0px"
	 viewBox="0 0 2500 2500" style="enable-background:new 0 0 2500 2500;" xml:space="preserve">
<style type="text/css">
	.st0{font-family:'MyriadPro-Regular';}
	.st1{font-size:50.9806px;}
	.st2{fill:none;}
</style>
<image style="overflow:visible;" width="2247" height="1792" xlink:href="../../../../../OneDrive/Desktop/lunarbase2.jpg"  transform="matrix(1 0 0 1 140.017 290.5424)">
</image>
<text transform="matrix(1 0 0 1 904.5872 418.7068)" class="st0 st1">cold storge</text>
<text transform="matrix(0.7791 -0.6269 0.6269 0.7791 452.4857 637.1379)" class="st0 st1">greenhouse</text>
<text transform="matrix(0.2944 -0.9557 0.9557 0.2944 244.1479 1071.8578)" class="st0 st1">greenhouse</text>
<text transform="matrix(-0.471 -0.8821 0.8821 -0.471 383.6642 1537.6962)" class="st0 st1">greenhouse</text>
<text transform="matrix(-0.8751 -0.4839 0.4839 -0.8751 761.0584 1833.199)" class="st0 st1">greenhouse</text>
<text transform="matrix(0.9759 0.2183 -0.2183 0.9759 923.838 756.6821)" class="st0 st1">kitchen</text>
<rect x="1156.5" y="790.1" class="st2" width="6.2" height="0"/>
<text transform="matrix(0.6269 0.7791 -0.7791 0.6269 1185.0448 821.7248)" class="st0 st1">bathroom</text>
<text transform="matrix(0.7791 -0.6269 0.6269 0.7791 684.7753 884.2448)" class="st0 st1">bedroom</text>
<text transform="matrix(0.2944 -0.9557 0.9557 0.2944 591.2964 1114.6121)" class="st0 st1">bedroom</text>
<text transform="matrix(-0.4275 -0.904 0.904 -0.4275 671.5418 1369.8754)" class="st0 st1">bedroom</text>
<text transform="matrix(-0.8523 -0.5231 0.5231 -0.8523 901.1656 1533.3364)" class="st0 st1">bedroom</text>
<text transform="matrix(0.9998 1.916673e-02 -1.916673e-02 0.9998 853.0092 1138.2072)" class="st0 st1">living area</text>
<text transform="matrix(0.9998 1.916701e-02 -1.916701e-02 0.9998 1739.5 1089.8678)" class="st0 st1">farm</text>
<text transform="matrix(0.9998 -2.231990e-02 2.231990e-02 0.9998 1437.4675 1797.882)" class="st0 st1">garage</text>
<text transform="matrix(0.9998 1.916729e-02 -1.916729e-02 0.9998 2117.2412 687.1843)" class="st0 st1">greenhouse</text>
<text transform="matrix(0.9998 1.916729e-02 -1.916729e-02 0.9998 1894.7416 1824.1942)" class="st0 st1">greenhouse</text>
</svg>
