<?xml version="1.0" encoding="UTF-8"?><svg id="Layer_1" xmlns="http://www.w3.org/2000/svg" viewBox="0 0 558.24 113.72"><path d="m10.32,10.11v60.67H.21V0h13.25c7.58,0,14.86,4.55,18.1,11.43l21.54,44.9c1.21,2.63,3.94,4.35,6.98,4.35,2.83,0,5.56-1.72,6.77-4.35l21.54-44.9c3.24-6.88,10.52-11.43,18.1-11.43h13.15v70.78h-10.11V10.11h-3.84c-3.34,0-6.57,2.02-7.99,5.06l-21.84,45.71c-2.83,5.97-9.2,9.91-15.98,9.91s-12.94-3.94-15.77-9.91L22.25,15.17c-1.42-3.03-4.65-5.06-7.99-5.06h-3.94Z"/><path d="m227.02,70.78h-10.52l-18.71-53.49c-1.52-4.35-5.56-7.18-10.11-7.18h-16.48c-4.55,0-8.6,2.83-10.11,7.18l-18.71,53.49h-10.52l20.63-58.85c2.43-7.18,9.2-11.93,16.79-11.93h20.33c7.58,0,14.36,4.75,16.79,11.93l20.63,58.85Z"/><path d="m239.16,0h10.11v30.34h65.73V0h10.11v70.78h-10.11v-30.34h-65.73v30.34h-10.11V0Z"/><path d="m339.27,0h10.11v70.78h-10.11V0Z"/><path d="m373.65,10.11v60.67h-10.11V0h17.59c7.58,0,14.97,4.45,18.5,11.22l22.95,44.49c1.52,2.93,4.75,4.95,8.09,4.95h9.71V0h10.11v70.78h-17.59c-7.58,0-14.97-4.45-18.5-11.22l-22.95-44.49c-1.52-3.03-4.75-4.96-8.09-4.96h-9.71Z"/><path d="m557.79,70.78h-10.52l-18.71-53.49c-1.52-4.35-5.56-7.18-10.11-7.18h-16.48c-4.55,0-8.59,2.83-10.11,7.18l-18.71,53.49h-10.52l20.63-58.85c2.43-7.18,9.2-11.93,16.79-11.93h20.33c7.58,0,14.36,4.75,16.79,11.93l20.63,58.85Z"/><path d="m14.6,92.11c0,1.48-.51,2.76-1.52,3.84-1.06,1.12-2.64,1.68-4.72,1.68-.97,0-2.09-.17-3.38-.51-.08-.02-.12,0-.12.09v4.76c0,2.23.2,3.34.6,3.34h2.64c.12,0,.18.06.18.18v.4c0,.12-.03.18-.09.18H.29c-.08,0-.12-.04-.12-.12v-.45c0-.12.05-.18.15-.18h2.02c.16,0,.23-.12.23-.37v-15.09c0-1.82-.12-2.72-.37-2.72H.21c-.14,0-.21-.04-.21-.12v-.51c0-.11.06-.16.18-.16h3.66c.17,0,.81-.01,1.94-.04s1.72-.04,1.78-.04c1.07,0,1.95.07,2.64.22,1.12.22,2.1.77,2.94,1.64.98,1.02,1.46,2.35,1.46,4Zm-2.3.21c0-1.3-.48-2.43-1.45-3.38-1.13-1.14-2.72-1.71-4.76-1.71-.57,0-.89,0-.97.03s-.13.12-.15.29c-.06.52-.09,2.02-.09,4.51,0,.09,0,.78-.01,2.07,0,1.29-.01,1.97-.01,2.03,0,.13.07.22.21.28.62.23,1.56.35,2.81.35,1.46,0,2.55-.35,3.25-1.05.78-.77,1.17-1.91,1.17-3.41Z"/><path d="m50.47,105.88c0,.12-.04.18-.12.18h-4.76c-.11,0-.23-.06-.37-.18-.37-.32-1.05-1.14-2.05-2.46l-1.58-2.14c-.59-.88-1.4-2.25-2.43-4.1-.07-.17-.15-.25-.23-.25-.46,0-1.27-.06-2.43-.18-.16-.05-.23,0-.23.15,0,.19,0,.8.01,1.85,0,1.05.01,2.16.01,3.32,0,2.14.22,3.21.66,3.21h2.61c.1,0,.15.05.15.15v.48c0,.1-.04.15-.12.15h-7.76c-.09,0-.14-.01-.16-.04s-.03-.06-.03-.1v-.45c0-.09.01-.14.04-.15.03-.02.07-.02.12-.02h1.92c.16,0,.23-.15.23-.45v-13.89c-.02-2.69-.19-4.03-.51-4.03h-1.86c-.1,0-.15-.04-.15-.12v-.54c0-.08.04-.12.12-.12h4.38c.14,0,.7-.02,1.68-.06s1.53-.06,1.65-.06c.63,0,1.25.05,1.86.15,1.35.21,2.43.72,3.25,1.51.96.91,1.44,2.06,1.44,3.44,0,1.58-.47,2.88-1.41,3.9-.58.62-1.52,1.16-2.83,1.6-.08.04-.11.1-.09.18.43,1.12,1.42,2.56,2.97,4.32.81.92,1.4,1.58,1.77,1.98.65.68,1.21,1.2,1.67,1.54.62.46,1.41.69,2.34.69.16,0,.23.04.23.12v.45Zm-7.1-13.99c0-1.3-.43-2.36-1.29-3.18-1.2-1.13-2.94-1.7-5.21-1.7-.33,0-.51.07-.54.21,0,2.8-.02,4.55-.06,5.24v3.34c0,.11.07.18.21.21.22.04.84.06,1.86.06.42,0,.89-.04,1.41-.12s.76-.12.71-.12c1.94-.51,2.92-1.82,2.92-3.94Z"/><path d="m85.98,95.67c0,3.09-.74,5.5-2.23,7.24-.52.62-.95,1.06-1.29,1.33-.71.57-1.64,1.06-2.78,1.48-.92.34-2.11.51-3.57.51-2.33,0-4.09-.3-5.27-.89-.86-.43-1.58-.98-2.17-1.66-.72-.82-1.24-1.72-1.55-2.71-.38-1.18-.57-2.74-.57-4.67,0-1.32.18-2.57.54-3.75.43-1.4,1.07-2.57,1.92-3.53s2.07-1.75,3.66-2.37c1.12-.44,2.37-.66,3.75-.66,2.09,0,3.69.25,4.79.75,1.24.56,2.21,1.32,2.92,2.29,1.24,1.69,1.86,3.91,1.86,6.65Zm-2.31.79c0-1.41-.16-2.64-.48-3.69-.36-1.22-.94-2.28-1.73-3.18-.72-.82-1.58-1.44-2.58-1.86-1.15-.48-2.3-.72-3.46-.72-1.49,0-2.57.24-3.24.72-1.21.86-2.04,1.81-2.49,2.84-.61,1.37-.91,3.04-.91,5.01,0,2.91.54,5.2,1.63,6.87.65,1.02,1.64,1.83,2.94,2.43,1.03.48,2.14.72,3.35.72,1.37,0,2.63-.38,3.78-1.14.9-.59,1.67-1.59,2.31-3.02.58-1.3.86-2.96.86-4.98Z"/><path d="m110.96,86.77c0,.1-.05.15-.15.15h-2.04c-.1,0-.15.08-.15.25,0,.07,0,1.63-.01,4.68,0,3.05-.01,4.77-.01,5.16,0,.35,0,1.65.01,3.9s.01,3.51.01,3.79c0,2.28-.04,3.63-.12,4.07-.29,1.58-1.2,2.87-2.71,3.85-1.14.73-2.51,1.1-4.1,1.1-.66,0-1.26-.17-1.79-.5-.56-.35-.83-.75-.83-1.2,0-.53.37-.79,1.11-.79.54,0,1.05.21,1.54.63.09.07.38.38.86.94.12.13.28.17.48.12,1.08-.25,1.92-.94,2.52-2.07.42-.79.63-2.03.63-3.72v-8.83c0-3.8-.03-6.4-.09-7.81-.03-.67-.05-1.35-.07-2.02-.08-1.04-.24-1.55-.5-1.55h-2.23c-.1,0-.15-.06-.15-.18v-.45c0-.1.05-.15.15-.15h7.47c.1,0,.15.05.15.15v.48Z"/><path d="m143.64,103.96c-.27.56-.6,1.2-.98,1.92-.08.12-.18.18-.31.18h-13.86c-.1,0-.15-.06-.15-.18v-.45c0-.1.04-.15.12-.15h2.17c.2,0,.29-.1.29-.31,0-.09,0-1.59-.03-4.5-.02-2.92-.03-4.42-.03-4.51s0-1.1-.01-3.02c0-1.92-.01-2.94-.01-3.05,0-1.98-.19-2.97-.57-2.97h-1.77c-.1,0-.15-.05-.15-.15v-.48c0-.1.06-.15.18-.15h13.11c.18,0,.41,0,.71-.03s.44-.03.43-.03c.13,0,.18.05.15.15-.14.54-.31,1.16-.51,1.86-.08.22-.16.34-.23.34l-.21-.22c-.36-.35-.93-.6-1.71-.75-1.09-.2-3.41-.31-6.96-.35-.12,0-.2.06-.24.18s-.07,2.54-.07,7.27c0,.2.08.29.25.29h7.16c.14,0,.22-.07.24-.22s.06-.46.12-.94.09-.74.1-.79c0-.19.06-.28.18-.28h.22c.12,0,.18.08.18.25,0,.04-.02.45-.06,1.22-.04.78-.06,1.24-.06,1.38s0,.66.03,1.54.03,1.35.03,1.41c0,.21-.05.32-.16.32h-.23c-.1,0-.16-.07-.18-.21-.04-.62-.09-1.37-.15-2.23-.03-.2-.12-.29-.28-.29-.09,0-1.29-.02-3.61-.06s-3.5-.06-3.55-.06c-.13,0-.19.09-.19.26v5.52c0,2.34.25,3.52.76,3.52,4.57,0,7.61-.35,9.11-1.05.36-.21.58-.33.66-.37.1,0,.13.06.09.19Z"/><path d="m178.43,103.17c.05.09.04.17-.03.25-.73.79-1.94,1.49-3.63,2.09-1.33.48-3,.72-5.01.72-1.71,0-3.06-.17-4.06-.51-1.03-.35-2.02-1-2.99-1.95-1.6-1.55-2.4-3.92-2.4-7.1,0-1.77.46-3.54,1.38-5.32.74-1.43,1.87-2.63,3.38-3.62,1.97-1.28,4.51-1.92,7.6-1.92,1.16,0,2.22.05,3.18.15,1.12.12,1.83.26,2.12.42.06.02.09.07.09.15,0,.16-.06.57-.15,1.23-.06.54-.11,1.01-.15,1.41-.02.12-.06.18-.12.18-.09,0-.14-.04-.15-.13s-.07-.22-.16-.41-.5-.52-1.22-1.01c-1.04-.52-2.56-.78-4.58-.78-2.6,0-4.67.8-6.21,2.39-1.74,1.81-2.61,4.07-2.61,6.78,0,2.98.92,5.31,2.75,6.99.93.85,1.87,1.43,2.81,1.73.85.27,1.99.41,3.43.41,1.06,0,2.09-.23,3.09-.7,1-.46,1.74-1.07,2.23-1.82.27-.44.44-.85.5-1.23,0-.17.03-.25.09-.25.04,0,.07.04.1.13.07.32.18.63.32.92.1.22.23.49.4.81Z"/><path d="m212.51,86.34c-.09.62-.24,1.33-.45,2.14-.04.14-.1.21-.18.21-.1,0-.19-.08-.28-.23-.22-.44-.62-.72-1.17-.85-.97-.21-2.71-.32-5.21-.32-.16,0-.24.06-.25.19s-.04,2.4-.09,6.83c-.06,4.25-.09,6.52-.09,6.81,0,2.78.24,4.17.72,4.17h2.52c.07,0,.1.04.1.12v.51c0,.1-.03.15-.1.15h-8.06c-.11,0-.16-.05-.16-.15v-.48c0-.1.05-.15.16-.15h2.36c.19,0,.28-.13.28-.38-.04-2.05-.06-3.17-.06-3.37,0-.17.02-1.81.07-4.94.05-3.13.07-4.76.07-4.9,0-2.94-.17-4.41-.51-4.41-2.52,0-4.3.14-5.33.42-.75.2-1.24.46-1.45.81-.11.18-.21.26-.29.26-.13,0-.19-.04-.19-.12,0-.11.03-.23.1-.38.27-.99.49-1.72.66-2.2.04-.13.15-.18.32-.15.21.03,1.21.09,3.02.18,2.11.1,3.81.15,5.11.15,4.18,0,6.55,0,7.12-.03.26,0,.51-.03.74-.07.23-.03.34-.05.33-.05.13,0,.19.08.19.23Z"/><path d="m265.53,103.99c0,.09-.16.4-.47.92-.08.21-.25.53-.51.97-.08.12-.16.18-.25.18h-13.95c-.12,0-.18-.05-.18-.15v-.48c0-.1.05-.15.15-.15h2.2c.18,0,.26-.1.26-.31,0-.09-.01-.68-.04-1.77s-.02-3.52.01-7.27.06-5.72.06-5.9c0-2.08-.19-3.12-.57-3.12h-1.66c-.14,0-.21-.06-.21-.18v-.42c0-.12.06-.18.18-.18h7.92c.1,0,.15.04.15.12v.51c0,.1-.04.15-.12.15h-2.94c-.15,0-.23.07-.26.21s-.08,2.52-.15,7.15c-.06,4.36-.09,6.84-.09,7.44,0,2.26.26,3.38.78,3.38,3.15,0,4.97-.02,5.43-.06,1.52-.13,2.75-.47,3.68-1.04.23-.15.38-.22.42-.22.1.07.15.14.15.22Z"/><path d="m301.68,86.74c0,.12-.03.18-.09.18h-.83c-.75,0-1.17,0-1.26.03-.05.19-.07.4-.07.64-.04.62-.07,1.6-.09,2.93,0,1.88.01,4.39.07,7.53.1,5.62-2.22,8.44-6.94,8.44-2.04,0-3.7-.22-4.97-.66s-2.18-1.21-2.74-2.31c-.46-.92-.72-2.3-.78-4.15-.04-1.2-.06-4.21-.06-9.02,0-2.29-.19-3.43-.57-3.43h-1.98c-.11,0-.16-.05-.16-.15v-.45c0-.12.05-.18.16-.18h7.19c.12,0,.18.04.18.12v.45c0,.14-.04.21-.12.21h-2.04c-.12,0-.19.08-.21.25-.06.4-.09,3.62-.09,9.65,0,2.1.06,3.52.18,4.26.22,1.4.87,2.46,1.95,3.18s2.53,1.08,4.38,1.08,3.31-.55,4.41-1.66c.84-.84,1.26-2.5,1.26-4.98,0-3.28-.03-5.71-.09-7.28-.12-3.01-.43-4.51-.94-4.51h-1.89c-.08,0-.13-.01-.15-.04s-.03-.06-.03-.1v-.48c0-.1.06-.15.18-.15h5.98c.1,0,.15.05.15.15v.45Z"/><path d="m339.68,86.74c0,.12-.05.18-.15.18h-2.04c-.21,0-.31.13-.31.4,0,.08,0,1.41-.03,3.99s-.03,3.98-.03,4.19-.02,1.96-.06,5.24-.06,5.01-.06,5.19c0,.46-.06.69-.18.69-.14,0-.25-.06-.34-.18-.89-1.19-3.52-4.58-7.9-10.15-1.55-2.08-3.38-4.4-5.48-6.96-.14-.12-.23-.08-.28.12-.03.13-.1,1.92-.22,5.38-.11,3.5-.16,5.69-.16,6.58,0,2.6.26,3.9.78,3.9h1.95c.1,0,.15.04.15.12v.54c0,.08-.04.12-.12.12h-5.76c-.13,0-.19-.03-.19-.09v-.54c0-.1.06-.15.19-.15h1.8c.16,0,.23-.07.23-.22v-2.15c0-.58.07-2.92.21-7.02s.21-6.19.21-6.27c0-1.81-.62-2.71-1.86-2.71h-1.03c-.08,0-.12-.05-.12-.15v-.48c0-.1.05-.15.15-.15h4.63c.13,0,.23.08.32.23s.9,1.26,2.42,3.3c1.53,2.05,2.39,3.19,2.59,3.42,2.19,2.91,4.51,5.91,6.96,9.01.04.03.08.04.12.04.07,0,.11-.14.13-.41,0-.19,0-1.91,0-5.19,0-3.28-.02-5.05-.03-5.32-.15-2.88-.5-4.32-1.05-4.32h-2.01c-.13,0-.19-.05-.19-.15v-.48c0-.1.05-.15.16-.15h6.39c.12,0,.18.04.18.12v.48Z"/><path d="m374.4,105.91c0,.1-.03.15-.09.15h-6.75c-.1,0-.15-.06-.15-.18v-.4c0-.14.05-.21.15-.21h2.01c.16,0,.22-.09.19-.26-.09-.31-.43-1.33-1.01-3.05s-.91-2.65-.97-2.78c-.08-.2-.18-.29-.31-.29h-7.08c-.09.02-.16.08-.22.18-.14.26-.37.88-.7,1.85-.33.97-.54,1.63-.62,1.99-.16.78-.23,1.25-.23,1.41,0,.64.08.97.23.97h2.23c.12,0,.18.07.18.21v.42c0,.1-.05.15-.15.15h-5.92c-.1,0-.15-.05-.15-.15v-.48c0-.1.04-.15.12-.15h1.26c.21,0,.51-.46.87-1.38s1.46-3.57,3.27-7.95c1.16-2.76,2.57-6.11,4.23-10.05.11-.3.21-.47.32-.51.27-.08.62-.2,1.05-.37.07-.03.15.02.23.15.09.13.05.28-.12.45-.29.3-.44.6-.44.88,0,.29.06.66.21,1.1.53,1.46,1.48,4.21,2.86,8.22,1.38,4.02,2.33,6.62,2.87,7.8.52,1.1.89,1.66,1.11,1.66h1.38c.08,0,.12.07.12.21v.42Zm-7.25-8.35c-.4-1.16-.83-2.44-1.29-3.82s-.93-2.83-1.42-4.34c-.03-.13-.07-.21-.12-.23-.04.04-.09.12-.15.23-1.22,2.99-2.1,5.11-2.63,6.36s-.8,1.89-.8,1.93c0,.06.04.09.13.09h6.2c.1,0,.12-.07.07-.22Z"/><path d="m409.64,105.88c0,.12-.04.18-.12.18h-4.76c-.11,0-.23-.06-.37-.18-.37-.32-1.05-1.14-2.05-2.46l-1.58-2.14c-.59-.88-1.4-2.25-2.43-4.1-.07-.17-.15-.25-.23-.25-.46,0-1.27-.06-2.43-.18-.16-.05-.23,0-.23.15,0,.19,0,.8.01,1.85,0,1.05.01,2.16.01,3.32,0,2.14.22,3.21.66,3.21h2.61c.1,0,.15.05.15.15v.48c0,.1-.04.15-.12.15h-7.76c-.09,0-.14-.01-.16-.04s-.03-.06-.03-.1v-.45c0-.09.01-.14.04-.15.03-.02.07-.02.12-.02h1.92c.16,0,.23-.15.23-.45v-13.89c-.02-2.69-.19-4.03-.51-4.03h-1.86c-.1,0-.15-.04-.15-.12v-.54c0-.08.04-.12.12-.12h4.38c.14,0,.7-.02,1.68-.06.98-.04,1.53-.06,1.65-.06.63,0,1.25.05,1.86.15,1.35.21,2.43.72,3.25,1.51.96.91,1.44,2.06,1.44,3.44,0,1.58-.47,2.88-1.41,3.9-.58.62-1.52,1.16-2.83,1.6-.08.04-.11.1-.09.18.43,1.12,1.42,2.56,2.97,4.32.81.92,1.4,1.58,1.77,1.98.65.68,1.21,1.2,1.67,1.54.62.46,1.41.69,2.34.69.16,0,.23.04.23.12v.45Zm-7.1-13.99c0-1.3-.43-2.36-1.29-3.18-1.2-1.13-2.94-1.7-5.21-1.7-.33,0-.51.07-.54.21,0,2.8-.02,4.55-.06,5.24v3.34c0,.11.07.18.21.21.22.04.84.06,1.86.06.42,0,.89-.04,1.41-.12s.76-.12.71-.12c1.94-.51,2.92-1.82,2.92-3.94Z"/><path d="m461.25,100.87c0,1.53-.55,2.78-1.66,3.75-1.23,1.07-2.92,1.61-5.07,1.61-.23,0-.99-.03-2.27-.09s-2.22-.09-2.83-.09h-2.26c-.08,0-.12-.04-.12-.12v-.51c0-.1.04-.15.12-.15h2.04c.24,0,.37-.17.37-.51,0-.12-.02-1.59-.06-4.41s-.06-4.38-.06-4.66v-5.9c-.09-1.82-.28-2.72-.57-2.72h-2.23c-.08,0-.12-.05-.12-.16v-.47c0-.09.05-.13.15-.13h4.38c.14,0,.66-.01,1.57-.04s1.45-.04,1.6-.04h1.42c.46.02,1.09.13,1.89.34.75.29,1.39.75,1.9,1.36.61.72.91,1.61.91,2.65,0,.78-.14,1.45-.41,2.01-.12.23-.38.62-.79,1.14-.54.7-1.28,1.31-2.24,1.83-.2.11-.21.19-.03.25,1.08.33,2.06.89,2.93,1.67.95.84,1.42,1.97,1.42,3.4Zm-3.12-9.13c0-1.27-.44-2.36-1.33-3.27-.89-.91-2.08-1.37-3.56-1.37-.66,0-1.09.03-1.29.09-.15.04-.23.14-.25.29-.02.19-.03,2.71-.03,7.59,0,.19.05.28.16.28-.03,0,.17,0,.59-.01.42,0,.85-.01,1.27-.01.19,0,.56.02,1.13.07.67.07,1.03.1,1.05.1.08,0,.2-.03.37-.12.57-.29,1.02-.76,1.35-1.41.36-.7.54-1.45.54-2.23Zm.63,9.51c0-1.36-.45-2.49-1.35-3.38-1.26-1.26-2.94-1.89-5.05-1.89-.25,0-.44.03-.56.09-.07.02-.1.12-.1.29v6.43c.05,1.5.21,2.31.48,2.43.53.21,1.31.32,2.34.32,1.28,0,2.27-.32,2.97-.95.84-.77,1.26-1.88,1.26-3.34Z"/><path d="m496.88,105.91c0,.1-.03.15-.09.15h-6.75c-.1,0-.15-.06-.15-.18v-.4c0-.14.05-.21.15-.21h2.01c.16,0,.22-.09.19-.26-.09-.31-.42-1.33-1.01-3.05s-.91-2.65-.97-2.78c-.08-.2-.18-.29-.31-.29h-7.08c-.09.02-.16.08-.22.18-.14.26-.37.88-.7,1.85-.33.97-.54,1.63-.62,1.99-.16.78-.23,1.25-.23,1.41,0,.64.08.97.23.97h2.23c.12,0,.18.07.18.21v.42c0,.1-.05.15-.15.15h-5.92c-.1,0-.15-.05-.15-.15v-.48c0-.1.04-.15.12-.15h1.26c.21,0,.51-.46.87-1.38.37-.92,1.46-3.57,3.27-7.95,1.16-2.76,2.57-6.11,4.23-10.05.11-.3.21-.47.32-.51.27-.08.62-.2,1.05-.37.07-.03.15.02.23.15.09.13.05.28-.12.45-.29.3-.44.6-.44.88,0,.29.06.66.21,1.1.53,1.46,1.48,4.21,2.86,8.22,1.38,4.02,2.33,6.62,2.87,7.8.52,1.1.89,1.66,1.11,1.66h1.38c.08,0,.12.07.12.21v.42Zm-7.25-8.35c-.4-1.16-.83-2.44-1.29-3.82s-.93-2.83-1.42-4.34c-.03-.13-.07-.21-.12-.23-.04.04-.09.12-.15.23-1.22,2.99-2.1,5.11-2.63,6.36s-.8,1.89-.8,1.93c0,.06.04.09.13.09h6.2c.1,0,.12-.07.07-.22Z"/><path d="m525.25,100.57c0,1.62-.52,2.95-1.55,4-1.1,1.09-2.71,1.64-4.8,1.64-2.46,0-4.2-.45-5.21-1.35-.12-.11-.18-.31-.18-.6,0-.07,0-.64-.01-1.71s-.01-1.65-.01-1.73c0-.13.07-.19.21-.19h.6c.12,0,.19.06.21.19s.05.43.09.92c.06,1.05.45,1.91,1.17,2.58.34.31.83.58,1.46.79s1.21.32,1.71.32c1.95,0,3.26-.65,3.91-1.95.29-.61.44-1.36.44-2.26,0-.8-.28-1.49-.83-2.07-.62-.64-1.71-1.25-3.27-1.8-1.76-.62-3.01-1.25-3.75-1.89-.99-.83-1.48-2.13-1.48-3.9,0-1.66.67-3.06,2.02-4.2,1.03-.88,2.37-1.32,4.04-1.32,1.1,0,2.13.19,3.08.56.61.23,1.05.48,1.33.73.14.1.21.23.23.4.11.74.16,1.74.16,2.99,0,.21-.03.31-.09.31h-.7c-.07,0-.12-.06-.15-.18-.06-.28-.13-.65-.21-1.11-.15-.67-.49-1.16-1.03-1.46-.99-.57-2.12-.85-3.41-.85-1.16,0-2.02.25-2.58.75-.59.52-.88,1.43-.88,2.74,0,.8.27,1.5.82,2.09.26.29.78.61,1.54.94.63.25,1.27.51,1.9.78,1.26.55,2,.88,2.23,1.01.73.4,1.35.88,1.86,1.45.75.85,1.13,1.98,1.13,3.38Z"/><path d="m558.22,103.96c-.27.56-.6,1.2-.98,1.92-.08.12-.18.18-.31.18h-13.86c-.1,0-.15-.06-.15-.18v-.45c0-.1.04-.15.12-.15h2.17c.2,0,.29-.1.29-.31,0-.09,0-1.59-.03-4.5-.02-2.92-.03-4.42-.03-4.51s0-1.1-.01-3.02c0-1.92-.01-2.94-.01-3.05,0-1.98-.19-2.97-.57-2.97h-1.77c-.1,0-.15-.05-.15-.15v-.48c0-.1.06-.15.18-.15h13.11c.18,0,.41,0,.71-.03s.44-.03.43-.03c.13,0,.18.05.15.15-.14.54-.31,1.16-.51,1.86-.08.22-.16.34-.23.34l-.21-.22c-.36-.35-.93-.6-1.71-.75-1.09-.2-3.41-.31-6.96-.35-.12,0-.2.06-.24.18-.04.12-.07,2.54-.07,7.27,0,.2.08.29.25.29h7.16c.14,0,.22-.07.24-.22s.06-.46.12-.94.09-.74.1-.79c0-.19.06-.28.18-.28h.22c.12,0,.18.08.18.25,0,.04-.02.45-.06,1.22-.04.78-.06,1.24-.06,1.38s0,.66.03,1.54.03,1.35.03,1.41c0,.21-.05.32-.16.32h-.23c-.1,0-.16-.07-.18-.21-.04-.62-.09-1.37-.15-2.23-.03-.2-.12-.29-.28-.29-.09,0-1.29-.02-3.61-.06-2.32-.04-3.5-.06-3.55-.06-.13,0-.19.09-.19.26v5.52c0,2.34.25,3.52.76,3.52,4.57,0,7.61-.35,9.11-1.05.36-.21.58-.33.66-.37.1,0,.13.06.09.19Z"/></svg>