<?xml version="1.0" encoding="UTF-8"?><svg id="Layer_1" xmlns="http://www.w3.org/2000/svg" viewBox="0 0 557.58 273.6"><defs><style>.cls-1{fill:#666;}</style></defs><path d="m6.91,273.6h-2.83v-17.02c0-1.95.69-3.62,2.07-5,1.38-1.38,3.06-2.07,5.02-2.07h15.59v6.37c0,1.77-.62,3.27-1.87,4.52-1.25,1.25-2.75,1.87-4.52,1.87H6.91v11.33Zm0-14.17h13.46c.98,0,1.81-.35,2.52-1.05.69-.69,1.04-1.52,1.04-2.5v-3.54h-12.76c-1.17,0-2.18.41-3.02,1.24-.83.83-1.24,1.83-1.24,3v2.85Z"/><path d="m59.99,255.88c0,2.15-.87,3.86-2.61,5.15,1.74,1.42,2.61,3.25,2.61,5.48v7.09h-2.83v-7.09c0-1.17-.42-2.17-1.26-3-.83-.83-1.83-1.24-3-1.24h-12.76v11.33h-2.83v-17.02c0-1.95.69-3.62,2.07-5,1.38-1.38,3.06-2.07,5.02-2.07h15.59v6.37Zm-6.39,3.55c.98,0,1.81-.35,2.52-1.05.69-.69,1.04-1.52,1.04-2.5v-3.54h-12.76c-1.17,0-2.18.41-3.02,1.24-.83.83-1.24,1.83-1.24,3v2.85h13.46Z"/><path d="m77.63,273.6c-1.96,0-3.64-.69-5.02-2.07-1.38-1.38-2.07-3.05-2.07-5.02v-9.92c0-1.95.69-3.62,2.07-5,1.38-1.38,3.06-2.07,5.02-2.07h8.5c1.95,0,3.62.69,5.02,2.07,1.38,1.38,2.07,3.05,2.07,5v9.92c0,1.96-.69,3.64-2.07,5.02-1.4,1.38-3.07,2.07-5.02,2.07h-8.5Zm0-21.26c-1.17,0-2.18.41-3.02,1.24-.83.83-1.24,1.83-1.24,3v9.92c0,1.17.41,2.18,1.24,3.02.84.83,1.85,1.24,3.02,1.24h8.5c1.17,0,2.17-.41,3-1.24.84-.84,1.26-1.85,1.26-3.02v-9.92c0-1.17-.42-2.17-1.26-3-.83-.83-1.83-1.24-3-1.24h-8.5Z"/><path d="m103.76,273.6v-2.83h9.92c1.17,0,2.17-.41,3-1.24.83-.84,1.24-1.85,1.24-3.02v-17h2.85v17c0,1.96-.7,3.64-2.09,5.02-1.38,1.38-3.05,2.07-5,2.07h-9.92Z"/><path d="m138.42,252.34c-1.17,0-2.18.41-3.02,1.24-.83.83-1.24,1.83-1.24,3v2.85h19.85v2.83h-19.85v8.5h19.85v2.83h-22.68v-17.02c0-1.95.69-3.62,2.07-5,1.38-1.38,3.06-2.07,5.02-2.07h15.59v2.83h-15.59Z"/><path d="m187.24,273.6h-15.59c-1.96,0-3.64-.69-5.02-2.07-1.38-1.38-2.07-3.05-2.07-5.02v-9.92c0-1.95.69-3.62,2.07-5,1.38-1.38,3.06-2.07,5.02-2.07h15.59v2.83h-15.59c-1.17,0-2.18.41-3.02,1.24-.83.83-1.24,1.83-1.24,3v9.92c0,1.17.41,2.18,1.24,3.02.84.83,1.85,1.24,3.02,1.24h15.59v2.83Z"/><path d="m220.47,249.51v2.83h-9.92v21.26h-2.83v-21.26h-9.92v-2.83h22.68Z"/><path d="m250.84,249.51v21.26h19.85v2.83h-22.68v-24.09h2.83Z"/><path d="m288.32,273.6c-1.96,0-3.64-.69-5.02-2.07-1.38-1.38-2.07-3.05-2.07-5.02v-17h2.83v17c0,1.17.41,2.18,1.24,3.02.84.83,1.85,1.24,3.02,1.24h8.5c1.17,0,2.17-.41,3-1.24.84-.84,1.26-1.85,1.26-3.02v-17h2.83v17c0,1.96-.69,3.64-2.07,5.02-1.4,1.38-3.07,2.07-5.02,2.07h-8.5Z"/><path d="m337.14,249.51v24.09h-3.26l-16.59-20.15v20.15h-2.83v-24.09h3.26l16.59,20.15v-20.15h2.83Z"/><path d="m363.28,249.51c1.95,0,3.62.69,5.02,2.07,1.38,1.38,2.07,3.05,2.07,5v17.02h-2.83v-11.33h-17.02v11.33h-2.83v-17.02c0-1.95.69-3.62,2.07-5,1.38-1.38,3.06-2.07,5.02-2.07h8.5Zm4.26,9.92v-2.85c0-1.17-.42-2.17-1.26-3-.83-.83-1.83-1.24-3-1.24h-8.5c-1.17,0-2.18.41-3.02,1.24-.83.83-1.24,1.83-1.24,3v2.85h17.02Z"/><path d="m403.6,255.88c0,2.15-.87,3.86-2.61,5.15,1.74,1.42,2.61,3.25,2.61,5.48v7.09h-2.83v-7.09c0-1.17-.42-2.17-1.26-3-.83-.83-1.83-1.24-3-1.24h-12.76v11.33h-2.83v-17.02c0-1.95.69-3.62,2.07-5,1.38-1.38,3.06-2.07,5.02-2.07h15.59v6.37Zm-6.39,3.55c.98,0,1.81-.35,2.52-1.05.69-.69,1.04-1.52,1.04-2.5v-3.54h-12.76c-1.17,0-2.18.41-3.02,1.24-.83.83-1.24,1.83-1.24,3v2.85h13.46Z"/><path d="m450.64,260.29c2.12,1.24,3.18,3.07,3.18,5.52v1.43c0,1.75-.62,3.25-1.87,4.5-1.25,1.25-2.75,1.87-4.52,1.87h-16.29v-24.09h14.89c1.75,0,3.25.62,4.5,1.87,1.25,1.25,1.87,2.75,1.87,4.5s-.59,3.17-1.76,4.41Zm-16.66-.85h12.05c.98,0,1.81-.35,2.5-1.05.69-.69,1.04-1.52,1.04-2.5s-.35-1.81-1.04-2.5-1.52-1.04-2.5-1.04h-12.05v7.09Zm17.02,6.37c0-.98-.35-1.81-1.04-2.5-.7-.69-1.54-1.04-2.52-1.04h-13.46v8.5h13.46c.98,0,1.81-.35,2.52-1.04.69-.69,1.04-1.52,1.04-2.5v-1.43Z"/><path d="m479.96,249.51c1.95,0,3.62.69,5.02,2.07,1.38,1.38,2.07,3.05,2.07,5v17.02h-2.83v-11.33h-17.02v11.33h-2.83v-17.02c0-1.95.69-3.62,2.07-5,1.38-1.38,3.06-2.07,5.02-2.07h8.5Zm4.26,9.92v-2.85c0-1.17-.42-2.17-1.26-3-.83-.83-1.83-1.24-3-1.24h-8.5c-1.17,0-2.18.41-3.02,1.24-.83.83-1.24,1.83-1.24,3v2.85h17.02Z"/><path d="m503.26,252.34c-.78,0-1.44.28-2,.83-.56.55-.83,1.22-.83,2v1.41c0,.79.28,1.46.83,2.02s1.22.83,2,.83h11.35c1.56,0,2.89.55,4,1.65,1.11,1.11,1.67,2.45,1.67,4.02v2.83c0,1.56-.55,2.89-1.67,4-1.11,1.11-2.44,1.67-4,1.67h-17.02v-2.83h17.02c.78,0,1.44-.28,2-.83s.83-1.22.83-2v-2.83c0-.79-.28-1.46-.83-2-.56-.55-1.22-.83-2-.83h-11.35c-1.56,0-2.89-.56-4-1.67-1.11-1.11-1.67-2.45-1.67-4.02v-1.41c0-1.57.56-2.91,1.67-4.02,1.11-1.1,2.44-1.65,4-1.65h17.02v2.83h-17.02Z"/><path d="m537.92,252.34c-1.17,0-2.18.41-3.02,1.24-.83.83-1.24,1.83-1.24,3v2.85h19.85v2.83h-19.85v8.5h19.85v2.83h-22.68v-17.02c0-1.95.69-3.62,2.07-5,1.38-1.38,3.06-2.07,5.02-2.07h15.59v2.83h-15.59Z"/><path d="m10.11,164.94v60.67H0v-70.78h13.25c7.58,0,14.86,4.55,18.1,11.43l21.54,44.9c1.21,2.63,3.94,4.35,6.98,4.35,2.83,0,5.56-1.72,6.77-4.35l21.54-44.9c3.24-6.88,10.52-11.43,18.1-11.43h13.15v70.78h-10.11v-60.67h-3.84c-3.34,0-6.57,2.02-7.99,5.06l-21.84,45.71c-2.83,5.97-9.2,9.91-15.98,9.91s-12.94-3.94-15.77-9.91l-21.84-45.71c-1.42-3.03-4.65-5.06-7.99-5.06h-3.94Z"/><path d="m226.81,225.61h-10.52l-18.71-53.49c-1.52-4.35-5.56-7.18-10.11-7.18h-16.48c-4.55,0-8.6,2.83-10.11,7.18l-18.71,53.49h-10.52l20.63-58.85c2.43-7.18,9.2-11.93,16.79-11.93h20.33c7.58,0,14.36,4.75,16.79,11.93l20.63,58.85Z"/><path d="m238.95,154.83h10.11v30.34h65.73v-30.34h10.11v70.78h-10.11v-30.34h-65.73v30.34h-10.11v-70.78Z"/><path d="m339.06,154.83h10.11v70.78h-10.11v-70.78Z"/><path d="m373.44,164.94v60.67h-10.11v-70.78h17.59c7.58,0,14.97,4.45,18.5,11.22l22.95,44.49c1.52,2.93,4.75,4.95,8.09,4.95h9.71v-60.67h10.11v70.78h-17.59c-7.58,0-14.97-4.45-18.5-11.22l-22.95-44.49c-1.52-3.03-4.75-4.96-8.09-4.96h-9.71Z"/><path d="m557.58,225.61h-10.52l-18.71-53.49c-1.52-4.35-5.56-7.18-10.11-7.18h-16.48c-4.55,0-8.59,2.83-10.11,7.18l-18.71,53.49h-10.52l20.63-58.85c2.43-7.18,9.2-11.93,16.79-11.93h20.33c7.58,0,14.36,4.75,16.79,11.93l20.63,58.85Z"/><path class="cls-1" d="m343.89,62.51c-.54,27.31-22.69,55.82-55.26,60.6-32.96,4.84-64.31-15.78-72.8-48.23-8.58-32.8,9.64-63.71,34.9-74.87-15.2,10-25.04,23.69-28.45,41.64-2.48,13.05-.69,25.64,4.92,37.67,10.86,23.26,36.08,37.52,61.65,34.82,26.09-2.76,49.11-20.69,55.04-51.61Z"/></svg>