<?xml version="1.0" encoding="UTF-8"?><svg id="Layer_1" xmlns="http://www.w3.org/2000/svg" viewBox="0 0 961.87 122.47"><path d="m9.39,9.39v56.35H0V0h12.3c7.04,0,13.81,4.23,16.81,10.61l20,41.7c1.13,2.44,3.66,4.04,6.48,4.04,2.63,0,5.17-1.6,6.29-4.04l20-41.7c3.01-6.39,9.77-10.61,16.81-10.61h12.21v65.74h-9.39V9.39h-3.57c-3.1,0-6.1,1.88-7.42,4.7l-20.29,42.45c-2.63,5.54-8.55,9.2-14.84,9.2s-12.02-3.66-14.65-9.2L20.47,14.09c-1.31-2.82-4.32-4.7-7.42-4.7h-3.66Z"/><path d="m122.28,33.34v-.94c0-19.54,13.81-32.4,33.34-32.4h29.11c19.53,0,33.34,12.87,33.34,32.4v.94c0,19.54-13.81,32.4-33.34,32.4h-29.11c-19.53,0-33.34-12.87-33.34-32.4Zm62.46,23.1c14.09,0,24.04-9.02,24.04-23.1v-.94c0-14.09-9.96-23.1-24.04-23.1h-29.11c-14.09,0-24.04,9.02-24.04,23.1v.94c0,14.09,9.96,23.1,24.04,23.1h29.11Z"/><path d="m227.46,33.34v-.94c0-19.54,13.81-32.4,33.34-32.4h29.11c19.53,0,33.34,12.87,33.34,32.4v.94c0,19.54-13.81,32.4-33.34,32.4h-29.11c-19.53,0-33.34-12.87-33.34-32.4Zm62.46,23.1c14.09,0,24.04-9.02,24.04-23.1v-.94c0-14.09-9.96-23.1-24.04-23.1h-29.11c-14.09,0-24.04,9.02-24.04,23.1v.94c0,14.09,9.96,23.1,24.04,23.1h29.11Z"/><path d="m343.91,9.39v56.35h-9.39V0h16.34c7.04,0,13.9,4.13,17.19,10.43l21.32,41.32c1.41,2.72,4.41,4.6,7.51,4.6h9.02V0h9.39v65.74h-16.34c-7.04,0-13.9-4.13-17.19-10.42l-21.32-41.32c-1.41-2.82-4.41-4.6-7.51-4.6h-9.02Z"/><path d="m475.39,11.74c0-7.04,4.7-11.74,11.74-11.74h41.79c19.35,0,22.54,10.52,22.54,17.84v1.5c0,4.13-1.03,9.02-5.07,12.68,6.01,3.76,6.95,9.77,6.95,14.37v1.41c0,7.33-2.72,17.94-22.54,17.94h-43.67c-7.04,0-11.74-4.7-11.74-11.74V11.74Zm53.44,45.27c9.86,0,15.31-3.29,15.31-9.3v-1.31c0-5.92-3.94-9.2-17.19-9.2h-4.6v-8.73h4.6c11.74,0,15.31-2.63,15.31-9.2v-1.31c0-6.48-3.57-9.2-15.31-9.2h-37c-3.1,0-5.17,2.07-5.17,5.17v37.94c0,3.1,2.07,5.17,5.17,5.17h38.88Z"/><path d="m646.42,65.74h-9.77l-17.37-49.68c-1.41-4.04-5.17-6.67-9.39-6.67h-15.31c-4.23,0-7.98,2.63-9.39,6.67l-17.37,49.68h-9.77l19.16-54.66c2.25-6.67,8.55-11.08,15.59-11.08h18.88c7.04,0,13.34,4.41,15.59,11.08l19.16,54.66Z"/><path d="m657.68,19.16c0-13.43,11.83-19.16,21.88-19.16h55.88v9.39h-55.88c-5.82,0-12.02,3.19-12.02,9.77s6.48,8.92,12.02,8.92l34,.09c10.05,0,21.88,4.98,21.88,18.41s-11.83,19.16-21.88,19.16h-55.88v-9.39h55.88c5.82,0,12.02-3.19,12.02-9.77s-6.48-9.02-12.02-9.02h-34c-10.05,0-21.88-4.98-21.88-18.41Z"/><path d="m748.59,0h76.07v9.39h-76.07V0Zm0,28.18h76.07v9.39h-76.07v-9.39Zm0,28.18h76.07v9.39h-76.07v-9.39Z"/><path d="m884.77,65.74v-8.45h52.59c5.54,0,15.12-.75,15.12-8.92v-.94c0-8.55-6.86-10.24-15.12-10.24h-30.15v-8.73l33.62-19.07h-56.07V0h73.91v9.39l-32.96,19.07h11.65c9.58,0,24.51.75,24.51,18.97v.94c0,13.15-13.99,17.38-24.51,17.38h-52.59Z"/><path d="m5.31,111.8c-.37,0-.55.18-.55.55v8.09c0,.37.18.55.55.55h2.93c.37,0,.55.18.55.55s-.18.55-.55.55H.55c-.37,0-.55-.18-.55-.55s.18-.55.55-.55h2.56c.37,0,.55-.18.55-.55v-22.43c0-.37-.18-.55-.55-.55H.55c-.37,0-.55-.18-.55-.55s.18-.55.55-.55h12.26c2.42,0,4.24.66,5.47,1.97s1.85,3.23,1.85,5.75-.62,4.44-1.85,5.76c-1.23,1.31-3.06,1.97-5.47,1.97h-7.51Zm7.51-1.1c4.15,0,6.22-2.21,6.22-6.62s-2.07-6.62-6.22-6.62h-7.51c-.37,0-.55.18-.55.55v12.14c0,.37.18.55.55.55h7.51Z"/><path d="m60.15,120.45c0,.37.18.55.55.55h2.2c.37,0,.55.18.55.55s-.18.55-.55.55h-6.96c-.37,0-.55-.18-.55-.55s.18-.55.55-.55h2.56c.37,0,.55-.18.55-.55v-22.43c0-.37-.18-.55-.55-.55h-2.56c-.37,0-.55-.18-.55-.55s.18-.55.55-.55h12.26c2.37,0,4.18.61,5.44,1.84,1.26,1.23,1.89,2.94,1.89,5.15s-.63,3.92-1.89,5.15c-1.26,1.23-3.07,1.84-5.44,1.84h-.18c-.2,0-.34.06-.42.17s-.07.24.05.39l6.96,9.56c.32.37.62.55.92.55h2.38c.37,0,.55.18.55.55s-.18.55-.55.55h-7.32c-.37,0-.55-.18-.55-.55s.18-.55.55-.55h2.38c.44,0,.5-.18.18-.55l-7.32-10.11h-5.13c-.37,0-.55.18-.55.55v9.56Zm8.05-11.22c2,0,3.54-.51,4.61-1.54,1.07-1.03,1.61-2.48,1.61-4.34s-.54-3.31-1.61-4.34c-1.07-1.03-2.61-1.54-4.61-1.54h-7.51c-.37,0-.55.18-.55.55v10.66c0,.37.18.55.55.55h7.51Z"/><path d="m116.39,118.74c-2.25-2.49-3.37-5.66-3.37-9.51s1.12-7.02,3.37-9.51c2.25-2.49,5.21-3.73,8.9-3.73s6.65,1.24,8.9,3.73c2.25,2.49,3.37,5.66,3.37,9.51s-1.12,7.02-3.37,9.51c-2.25,2.49-5.21,3.73-8.9,3.73s-6.65-1.24-8.9-3.73Zm.81-18.22c-2.05,2.28-3.08,5.19-3.08,8.72s1.02,6.44,3.08,8.72c2.05,2.28,4.75,3.42,8.09,3.42s6.04-1.14,8.09-3.42c2.05-2.28,3.08-5.19,3.08-8.72s-1.03-6.44-3.08-8.72c-2.05-2.28-4.75-3.42-8.09-3.42s-6.04,1.14-8.09,3.42Z"/><path d="m176.14,120.59c.83.52,1.95.77,3.35.77s2.62-.53,3.64-1.58c1.02-1.05,1.54-2.55,1.54-4.49v-17.28c0-.37-.18-.55-.55-.55h-2.56c-.37,0-.55-.18-.55-.55s.18-.55.55-.55h7.32c.37,0,.55.18.55.55s-.18.55-.55.55h-2.56c-.37,0-.55.18-.55.55v17.28c0,2.28-.6,4.04-1.81,5.3-1.21,1.25-2.8,1.88-4.78,1.88-1.39,0-2.64-.33-3.75-.99-1.11-.66-1.98-1.51-2.62-2.54-.07-.1-.11-.21-.11-.33s.13-.26.4-.4c.24-.15.49-.06.73.26.71.91,1.48,1.62,2.31,2.13Z"/><path d="m224.65,121.55c0-.37.18-.55.55-.55h2.56c.37,0,.55-.18.55-.55v-22.43c0-.37-.18-.55-.55-.55h-2.56c-.37,0-.55-.18-.55-.55s.18-.55.55-.55h17.39c.37,0,.55.18.55.55v5.15c0,.37-.18.55-.55.55s-.55-.18-.55-.55v-4.04c0-.37-.18-.55-.55-.55h-11.53c-.37,0-.55.18-.55.55v9.93c0,.37.18.55.55.55h8.24c.37,0,.55-.18.55-.55v-1.84c0-.37.18-.55.55-.55s.55.18.55.55v5.88c0,.37-.18.55-.55.55s-.55-.18-.55-.55v-1.84c0-.37-.18-.55-.55-.55h-8.24c-.37,0-.55.18-.55.55v10.3c0,.37.18.55.55.55h11.9c.37,0,.55-.18.55-.55v-4.05c0-.37.18-.55.55-.55s.55.18.55.55v5.15c0,.37-.18.55-.55.55h-17.76c-.37,0-.55-.18-.55-.55Z"/><path d="m279.79,109.23c0-3.82,1.07-6.99,3.22-9.49,2.15-2.5,4.92-3.75,8.31-3.75,2.95,0,5.63,1.04,8.02,3.13.39.32.59.2.59-.37v-1.84c0-.37.18-.55.55-.55s.55.18.55.55v6.99c0,.37-.18.55-.55.55s-.55-.18-.55-.55v-2.57c-.66-.76-1.43-1.46-2.31-2.1-2-1.42-4.1-2.13-6.3-2.13-3,0-5.49,1.16-7.47,3.48s-2.97,5.22-2.97,8.72,1.02,6.38,3.08,8.66c2.05,2.28,4.78,3.42,8.2,3.42s6.17-1.12,8.27-3.35c.24-.24.46-.27.66-.07.19.2.29.36.29.48s-.06.25-.18.37c-2.49,2.45-5.56,3.68-9.21,3.68s-6.6-1.25-8.84-3.75c-2.25-2.5-3.37-5.66-3.37-9.49Z"/><path d="m336.46,102.24v-5.33c0-.37.18-.55.55-.55h19.77c.37,0,.55.18.55.55v5.33c0,.37-.18.55-.55.55s-.55-.18-.55-.55v-4.23c0-.37-.18-.55-.55-.55h-7.69c-.37,0-.55.18-.55.55v22.43c0,.37.18.55.55.55h2.56c.37,0,.55.18.55.55s-.18.55-.55.55h-7.32c-.37,0-.55-.18-.55-.55s.18-.55.55-.55h2.56c.37,0,.55-.18.55-.55v-22.43c0-.37-.18-.55-.55-.55h-7.69c-.37,0-.55.18-.55.55v4.23c0,.37-.18.55-.55.55s-.55-.18-.55-.55Z"/><path d="m434.88,121.55c0-.37.18-.55.55-.55h2.56c.37,0,.55-.18.55-.55v-22.43c0-.37-.18-.55-.55-.55h-2.56c-.37,0-.55-.18-.55-.55s.18-.55.55-.55h8.05c.37,0,.55.18.55.55s-.18.55-.55.55h-3.29c-.37,0-.55.18-.55.55v22.43c0,.37.18.55.55.55h11.72c.37,0,.55-.18.55-.55v-4.05c0-.37.18-.55.55-.55s.55.18.55.55v5.15c0,.37-.18.55-.55.55h-17.57c-.37,0-.55-.18-.55-.55Z"/><path d="m487.3,96.36h6.96c.37,0,.55.18.55.55s-.18.55-.55.55h-2.2c-.37,0-.55.18-.55.55v14.89c0,2.55.79,4.6,2.38,6.14,1.59,1.54,3.6,2.32,6.04,2.32s4.45-.77,6.04-2.32,2.38-3.59,2.38-6.14v-14.89c0-.37-.18-.55-.55-.55h-2.2c-.37,0-.55-.18-.55-.55s.18-.55.55-.55h6.96c.37,0,.55.18.55.55s-.18.55-.55.55h-2.56c-.37,0-.55.18-.55.55v14.89c0,2.82-.9,5.12-2.69,6.9-1.79,1.78-4.07,2.67-6.83,2.67s-5.03-.89-6.83-2.67c-1.79-1.78-2.69-4.08-2.69-6.9v-14.89c0-.37-.18-.55-.55-.55h-2.56c-.37,0-.55-.18-.55-.55s.18-.55.55-.55Z"/><path d="m548.77,121h2.56c.37,0,.55-.18.55-.55v-22.43c0-.37-.18-.55-.55-.55h-2.56c-.37,0-.55-.18-.55-.55s.18-.55.55-.55h4.03c.39,0,.7.18.91.55l15.01,22.98c.05.1.12.14.22.13.1-.01.15-.12.15-.31v-21.7c0-.37-.18-.55-.55-.55h-2.2c-.37,0-.55-.18-.55-.55s.18-.55.55-.55h6.96c.37,0,.55.18.55.55s-.18.55-.55.55h-2.56c-.37,0-.55.18-.55.55v22.43c0,.37.18.55.55.55h2.56c.37,0,.55.18.55.55s-.18.55-.55.55h-4.03c-.39,0-.7-.18-.92-.55l-15.01-22.98c-.05-.1-.12-.14-.22-.13-.1.01-.15.12-.15.31v21.7c0,.37.18.55.55.55h2.2c.37,0,.55.18.55.55s-.18.55-.55.55h-6.96c-.37,0-.55-.18-.55-.55s.18-.55.55-.55Z"/><path d="m627.02,113.64c-.15-.34-.44-.51-.88-.51h-10.4c-.44,0-.73.17-.88.51l-2.6,6.8c-.2.37-.07.55.37.55h2.2c.37,0,.55.18.55.55s-.18.55-.55.55h-6.96c-.37,0-.55-.18-.55-.55s.18-.55.55-.55h2.38c.29,0,.54-.18.73-.55l9.15-23.9c.1-.37.37-.55.81-.55s.71.18.81.55l9.15,23.9c.17.37.42.55.73.55h2.38c.37,0,.55.18.55.55s-.18.55-.55.55h-6.96c-.37,0-.55-.18-.55-.55s.18-.55.55-.55h2.2c.41,0,.54-.18.37-.55l-2.6-6.8Zm-5.86-15.26c-.05-.15-.12-.22-.22-.22s-.17.07-.22.22l-5.02,13.09c-.2.37-.06.55.4.55h9.66c.44,0,.57-.18.4-.55l-5.02-13.09Z"/><path d="m673.04,120.45c0,.37.18.55.55.55h2.2c.37,0,.55.18.55.55s-.18.55-.55.55h-6.96c-.37,0-.55-.18-.55-.55s.18-.55.55-.55h2.56c.37,0,.55-.18.55-.55v-22.43c0-.37-.18-.55-.55-.55h-2.56c-.37,0-.55-.18-.55-.55s.18-.55.55-.55h12.26c2.37,0,4.18.61,5.44,1.84,1.26,1.23,1.89,2.94,1.89,5.15s-.63,3.92-1.89,5.15c-1.26,1.23-3.07,1.84-5.44,1.84h-.18c-.2,0-.34.06-.42.17-.09.11-.07.24.05.39l6.96,9.56c.32.37.62.55.91.55h2.38c.37,0,.55.18.55.55s-.18.55-.55.55h-7.32c-.37,0-.55-.18-.55-.55s.18-.55.55-.55h2.38c.44,0,.5-.18.18-.55l-7.32-10.11h-5.13c-.37,0-.55.18-.55.55v9.56Zm8.05-11.22c2,0,3.54-.51,4.61-1.54,1.07-1.03,1.61-2.48,1.61-4.34s-.54-3.31-1.61-4.34c-1.07-1.03-2.61-1.54-4.61-1.54h-7.51c-.37,0-.55.18-.55.55v10.66c0,.37.18.55.55.55h7.51Z"/><path d="m783.35,108.35c3.54.69,5.31,3.04,5.31,7.06,0,1.96-.6,3.57-1.81,4.82-1.21,1.25-2.92,1.88-5.14,1.88h-12.63c-.37,0-.55-.18-.55-.55s.18-.55.55-.55h2.56c.37,0,.55-.18.55-.55v-22.43c0-.37-.18-.55-.55-.55h-2.56c-.37,0-.55-.18-.55-.55s.18-.55.55-.55h11.17c1.95,0,3.54.61,4.76,1.84,1.22,1.23,1.83,2.76,1.83,4.6,0,2.6-1.16,4.45-3.48,5.55Zm-10.07-.77c0,.37.18.55.55.55h6.59c1.54,0,2.81-.52,3.81-1.56,1-1.04,1.5-2.32,1.5-3.84s-.49-2.78-1.48-3.77c-.99-.99-2.32-1.49-4.01-1.49h-6.41c-.37,0-.55.18-.55.55v9.56Zm0,12.87c0,.37.18.55.55.55h7.87c1.83,0,3.26-.52,4.3-1.56s1.56-2.48,1.56-4.32-.52-3.28-1.56-4.32c-1.04-1.04-2.47-1.56-4.3-1.56h-7.87c-.37,0-.55.18-.55.55v10.66Z"/><path d="m842.07,113.64c-.15-.34-.44-.51-.88-.51h-10.4c-.44,0-.73.17-.88.51l-2.6,6.8c-.2.37-.07.55.37.55h2.2c.37,0,.55.18.55.55s-.18.55-.55.55h-6.96c-.37,0-.55-.18-.55-.55s.18-.55.55-.55h2.38c.29,0,.54-.18.73-.55l9.15-23.9c.1-.37.37-.55.81-.55s.71.18.81.55l9.15,23.9c.17.37.42.55.73.55h2.38c.37,0,.55.18.55.55s-.18.55-.55.55h-6.96c-.37,0-.55-.18-.55-.55s.18-.55.55-.55h2.2c.41,0,.54-.18.37-.55l-2.6-6.8Zm-5.86-15.26c-.05-.15-.12-.22-.22-.22s-.17.07-.22.22l-5.02,13.09c-.2.37-.06.55.4.55h9.67c.44,0,.57-.18.4-.55l-5.02-13.09Z"/><path d="m887.65,119.34c2.05,1.35,4.3,2.02,6.75,2.02s4.36-.55,5.71-1.64c1.35-1.09,2.03-2.51,2.03-4.25,0-.96-.29-1.79-.88-2.5-.59-.71-1.32-1.26-2.2-1.65-.98-.44-2.87-1.05-5.68-1.82-2.81-.77-4.74-1.42-5.8-1.95s-1.89-1.2-2.49-2c-.6-.81-.9-1.74-.9-2.79,0-2.06.67-3.7,2.01-4.93,1.34-1.23,3.48-1.84,6.41-1.84s5.58,1.04,8.02,3.13c.39.32.59.2.59-.37v-1.84c0-.37.18-.55.55-.55s.55.18.55.55v6.99c0,.37-.18.55-.55.55s-.55-.18-.55-.55v-2.57c-1.34-1.54-3.01-2.73-5.02-3.57-1.07-.44-2.27-.66-3.59-.66-2.49,0-4.33.51-5.53,1.54s-1.79,2.29-1.79,3.79c0,.96.29,1.79.88,2.5.59.71,1.32,1.26,2.2,1.65.98.44,2.87,1.05,5.68,1.82,2.81.77,4.74,1.42,5.8,1.95,1.06.53,1.89,1.2,2.49,2,.6.81.9,1.78.9,2.91,0,2.21-.77,3.96-2.31,5.26-1.54,1.3-3.82,1.95-6.85,1.95s-5.76-1.04-8.2-3.13c-.39-.32-.59-.2-.59.37v1.84c0,.37-.18.55-.55.55s-.55-.18-.55-.55v-6.99c0-.37.18-.55.55-.55s.55.18.55.55v2.76c.66.76,1.44,1.43,2.34,2.02Z"/><path d="m939.35,121.55c0-.37.18-.55.55-.55h2.56c.37,0,.55-.18.55-.55v-22.43c0-.37-.18-.55-.55-.55h-2.56c-.37,0-.55-.18-.55-.55s.18-.55.55-.55h17.39c.37,0,.55.18.55.55v5.15c0,.37-.18.55-.55.55s-.55-.18-.55-.55v-4.04c0-.37-.18-.55-.55-.55h-11.53c-.37,0-.55.18-.55.55v9.93c0,.37.18.55.55.55h8.24c.37,0,.55-.18.55-.55v-1.84c0-.37.18-.55.55-.55s.55.18.55.55v5.88c0,.37-.18.55-.55.55s-.55-.18-.55-.55v-1.84c0-.37-.18-.55-.55-.55h-8.24c-.37,0-.55.18-.55.55v10.3c0,.37.18.55.55.55h11.9c.37,0,.55-.18.55-.55v-4.05c0-.37.18-.55.55-.55s.55.18.55.55v5.15c0,.37-.18.55-.55.55h-17.76c-.37,0-.55-.18-.55-.55Z"/></svg>