<?xml version="1.0" encoding="UTF-8"?><svg id="Layer_1" xmlns="http://www.w3.org/2000/svg" viewBox="0 0 961.87 124.01"><path d="m9.39,9.39v56.35H0V0h12.3c7.04,0,13.81,4.23,16.81,10.61l20,41.7c1.13,2.44,3.66,4.04,6.48,4.04,2.63,0,5.17-1.6,6.29-4.04l20-41.7c3.01-6.39,9.77-10.61,16.81-10.61h12.21v65.74h-9.39V9.39h-3.57c-3.1,0-6.1,1.88-7.42,4.7l-20.29,42.45c-2.63,5.54-8.55,9.2-14.84,9.2s-12.02-3.66-14.65-9.2L20.47,14.09c-1.31-2.82-4.32-4.7-7.42-4.7h-3.66Z"/><path d="m122.28,33.34v-.94c0-19.54,13.81-32.4,33.34-32.4h29.11c19.53,0,33.34,12.87,33.34,32.4v.94c0,19.54-13.81,32.4-33.34,32.4h-29.11c-19.53,0-33.34-12.87-33.34-32.4Zm62.46,23.1c14.09,0,24.04-9.02,24.04-23.1v-.94c0-14.09-9.96-23.1-24.04-23.1h-29.11c-14.09,0-24.04,9.02-24.04,23.1v.94c0,14.09,9.96,23.1,24.04,23.1h29.11Z"/><path d="m227.46,33.34v-.94c0-19.54,13.81-32.4,33.34-32.4h29.11c19.53,0,33.34,12.87,33.34,32.4v.94c0,19.54-13.81,32.4-33.34,32.4h-29.11c-19.53,0-33.34-12.87-33.34-32.4Zm62.46,23.1c14.09,0,24.04-9.02,24.04-23.1v-.94c0-14.09-9.96-23.1-24.04-23.1h-29.11c-14.09,0-24.04,9.02-24.04,23.1v.94c0,14.09,9.96,23.1,24.04,23.1h29.11Z"/><path d="m343.91,9.39v56.35h-9.39V0h16.34c7.04,0,13.9,4.13,17.19,10.43l21.32,41.32c1.41,2.72,4.41,4.6,7.51,4.6h9.02V0h9.39v65.74h-16.34c-7.04,0-13.9-4.13-17.19-10.42l-21.32-41.32c-1.41-2.82-4.41-4.6-7.51-4.6h-9.02Z"/><path d="m475.39,11.74c0-7.04,4.7-11.74,11.74-11.74h41.79c19.35,0,22.54,10.52,22.54,17.84v1.5c0,4.13-1.03,9.02-5.07,12.68,6.01,3.76,6.95,9.77,6.95,14.37v1.41c0,7.33-2.72,17.94-22.54,17.94h-43.67c-7.04,0-11.74-4.7-11.74-11.74V11.74Zm53.44,45.27c9.86,0,15.31-3.29,15.31-9.3v-1.31c0-5.92-3.94-9.2-17.19-9.2h-4.6v-8.73h4.6c11.74,0,15.31-2.63,15.31-9.2v-1.31c0-6.48-3.57-9.2-15.31-9.2h-37c-3.1,0-5.17,2.07-5.17,5.17v37.94c0,3.1,2.07,5.17,5.17,5.17h38.88Z"/><path d="m646.42,65.74h-9.77l-17.37-49.68c-1.41-4.04-5.17-6.67-9.39-6.67h-15.31c-4.23,0-7.98,2.63-9.39,6.67l-17.37,49.68h-9.77l19.16-54.66c2.25-6.67,8.55-11.08,15.59-11.08h18.88c7.04,0,13.34,4.41,15.59,11.08l19.16,54.66Z"/><path d="m657.68,19.16c0-13.43,11.83-19.16,21.88-19.16h55.88v9.39h-55.88c-5.82,0-12.02,3.19-12.02,9.77s6.48,8.92,12.02,8.92l34,.09c10.05,0,21.88,4.98,21.88,18.41s-11.83,19.16-21.88,19.16h-55.88v-9.39h55.88c5.82,0,12.02-3.19,12.02-9.77s-6.48-9.02-12.02-9.02h-34c-10.05,0-21.88-4.98-21.88-18.41Z"/><path d="m748.59,0h76.07v9.39h-76.07V0Zm0,28.18h76.07v9.39h-76.07v-9.39Zm0,28.18h76.07v9.39h-76.07v-9.39Z"/><path d="m884.77,65.74v-8.45h52.59c5.54,0,15.12-.75,15.12-8.92v-.94c0-8.55-6.86-10.24-15.12-10.24h-30.15v-8.73l33.62-19.07h-56.07V0h73.91v9.39l-32.96,19.07h11.65c9.58,0,24.51.75,24.51,18.97v.94c0,13.15-13.99,17.38-24.51,17.38h-52.59Z"/><path d="m6.38,106.58v6.62c0,.93.1,1.61.29,2.02.2.42.54.7,1.03.85.49.15,1.28.25,2.38.29v.74c-1.27-.07-3.07-.11-5.39-.11-2.1,0-3.67.04-4.69.11v-.74c.88-.05,1.52-.15,1.93-.29.4-.15.68-.43.83-.85.15-.42.22-1.09.22-2.02v-18.24c0-.93-.07-1.61-.22-2.02-.15-.42-.42-.7-.83-.85-.4-.15-1.04-.24-1.93-.29v-.74c1.03.07,2.52.11,4.47.11l3.96-.04c.46-.02.99-.04,1.58-.04,2.86,0,5.05.66,6.56,1.97,1.52,1.31,2.27,3.07,2.27,5.28,0,1.35-.3,2.64-.9,3.88-.6,1.24-1.61,2.27-3.04,3.11s-3.33,1.25-5.7,1.25h-2.82Zm1.01-14.53c-.38.17-.64.48-.79.92-.15.44-.22,1.1-.22,1.99v10.89h2.46c2.4,0,4.05-.64,4.97-1.93s1.38-3.01,1.38-5.17c0-2.38-.47-4.13-1.41-5.26-.94-1.13-2.5-1.69-4.68-1.69-.76,0-1.33.09-1.71.26Z"/><path d="m78.51,115.26c-.56.83-1.12,1.43-1.69,1.8s-1.31.55-2.24.55c-1,0-1.83-.29-2.47-.88-.65-.59-1.13-1.62-1.45-3.09l-.81-3.68c-.29-1.27-.57-2.26-.83-2.94-.26-.69-.64-1.24-1.15-1.65-.51-.42-1.23-.62-2.16-.62h-3.48v8.46c0,.93.07,1.61.22,2.02.15.42.42.7.82.85.4.15,1.05.25,1.93.29v.74c-1.12-.07-2.68-.11-4.66-.11-2.1,0-3.67.04-4.69.11v-.74c.88-.05,1.52-.15,1.93-.29.4-.15.68-.43.83-.85.15-.42.22-1.09.22-2.02v-18.24c0-.93-.07-1.61-.22-2.02-.15-.42-.42-.7-.83-.85-.4-.15-1.04-.24-1.93-.29v-.74c1.03.07,2.52.11,4.47.11l3.96-.04c.46-.02.99-.04,1.58-.04,2.84,0,5.02.59,6.55,1.78,1.53,1.19,2.29,2.73,2.29,4.62,0,.96-.23,1.92-.68,2.89-.45.97-1.21,1.84-2.27,2.61-1.06.77-2.45,1.29-4.16,1.56l.44.07c1.61.27,2.79.76,3.52,1.47.73.71,1.27,1.84,1.61,3.38l.92,3.75c.24,1.13.5,1.91.77,2.35.27.44.64.66,1.1.66.42,0,.76-.11,1.04-.33s.61-.58.97-1.07l.55.4Zm-15.27-23.2c-.38.17-.64.48-.79.92-.15.44-.22,1.1-.22,1.99v9.05h2.46c2.42,0,4.08-.54,4.99-1.62.9-1.08,1.36-2.57,1.36-4.49,0-2.01-.48-3.53-1.43-4.56-.95-1.03-2.51-1.54-4.66-1.54-.76,0-1.33.09-1.71.26Z"/><path d="m132.18,92.13c1.75,1.05,3.1,2.58,4.07,4.58.97,2,1.45,4.38,1.45,7.15s-.5,5.09-1.49,7.17c-.99,2.08-2.37,3.7-4.14,4.85-1.77,1.15-3.78,1.73-6.03,1.73s-4.36-.53-6.11-1.58c-1.75-1.05-3.1-2.58-4.07-4.58-.97-2-1.45-4.38-1.45-7.15s.49-5.09,1.49-7.17c.99-2.08,2.37-3.7,4.14-4.85,1.77-1.15,3.78-1.73,6.03-1.73s4.36.53,6.11,1.58Zm-10.38.72c-1.19,1.09-2.1,2.62-2.75,4.58-.65,1.96-.97,4.21-.97,6.73s.36,4.79,1.08,6.73c.72,1.94,1.69,3.43,2.92,4.49,1.22,1.05,2.59,1.58,4.11,1.58s2.94-.55,4.13-1.64c1.19-1.09,2.1-2.62,2.75-4.58s.97-4.2.97-6.73-.36-4.79-1.08-6.73c-.72-1.94-1.69-3.43-2.92-4.49-1.22-1.05-2.59-1.58-4.11-1.58s-2.94.55-4.13,1.64Z"/><path d="m173.05,123.32c1.71-.05,2.98-.69,3.8-1.91.82-1.23,1.23-3.3,1.23-6.21v-20.23c0-.93-.07-1.61-.22-2.02-.15-.42-.42-.7-.83-.85-.4-.15-1.04-.24-1.93-.29v-.74c1.03.07,2.57.11,4.62.11s3.58-.04,4.73-.11v.74c-.88.05-1.52.15-1.93.29-.4.15-.68.43-.82.85-.15.42-.22,1.09-.22,2.02v13.46c0,2.08-.04,3.93-.11,5.53-.07,1.61-.24,2.96-.51,4.06-.44,1.79-1.34,3.24-2.7,4.34-1.36,1.1-3.06,1.65-5.12,1.65v-.7Z"/><path d="m240.7,117.1c-1.66-.07-4.46-.11-8.4-.11-4.69,0-8.24.04-10.63.11v-.74c.88-.05,1.52-.15,1.93-.29.4-.15.68-.43.83-.85.15-.42.22-1.09.22-2.02v-18.24c0-.93-.07-1.61-.22-2.02-.15-.42-.42-.7-.83-.85-.4-.15-1.04-.24-1.93-.29v-.74c2.4.07,5.94.11,10.63.11,3.59,0,6.15-.04,7.66-.11-.17,1.62-.26,3.06-.26,4.34,0,.96.04,1.72.11,2.28h-.84c-.17-1.59-.39-2.78-.66-3.55-.27-.77-.72-1.34-1.36-1.69-.64-.35-1.6-.53-2.9-.53h-3.04c-.88,0-1.52.07-1.93.2-.4.13-.68.41-.82.83-.15.42-.22,1.09-.22,2.02v8.68h2.42c.86,0,1.52-.2,1.98-.61.46-.4.78-.88.94-1.43.16-.55.29-1.24.39-2.08l.11-.74h.84c-.07,1.03-.11,2.18-.11,3.46v1.77c0,1.25.07,2.99.22,5.22h-.84c-.02-.17-.1-.77-.22-1.78-.12-1.02-.46-1.78-1.01-2.3-.55-.51-1.31-.77-2.29-.77h-2.42v8.83c0,.93.07,1.61.22,2.02.15.42.42.69.82.83.4.13,1.05.2,1.93.2h2.68c1.52,0,2.67-.2,3.47-.61.79-.4,1.38-1.05,1.74-1.95.37-.9.64-2.21.81-3.95h.84c-.07.66-.11,1.54-.11,2.65,0,1.4.09,2.97.26,4.71Z"/><path d="m294.21,91.18c1.03.42,2.03,1.01,3.01,1.77.27.22.5.33.7.33.49,0,.81-.74.95-2.21h.84c-.1,1.59-.15,4.41-.15,8.46h-.84c-.27-1.59-.51-2.74-.73-3.44-.22-.7-.59-1.37-1.1-2-.73-.96-1.67-1.67-2.81-2.15-1.14-.48-2.37-.72-3.69-.72-1.59,0-2.98.53-4.16,1.58-1.19,1.05-2.11,2.56-2.77,4.5-.66,1.95-.99,4.24-.99,6.86s.35,4.96,1.06,6.88c.71,1.91,1.69,3.36,2.95,4.36,1.26.99,2.68,1.49,4.27,1.49,1.22,0,2.41-.23,3.56-.7,1.15-.47,2.05-1.16,2.71-2.1.49-.69.84-1.42,1.06-2.21.22-.78.43-1.99.62-3.6h.84c0,4.22.05,7.16.15,8.83h-.84c-.07-.78-.18-1.34-.31-1.67-.13-.33-.32-.5-.57-.5-.2,0-.45.1-.77.29-1.1.78-2.15,1.38-3.15,1.78-1,.4-2.21.61-3.63.61-2.32,0-4.36-.53-6.11-1.58-1.75-1.05-3.1-2.58-4.07-4.58-.97-2-1.45-4.38-1.45-7.15s.49-5.09,1.49-7.17c.99-2.08,2.37-3.7,4.14-4.85,1.77-1.15,3.78-1.73,6.03-1.73,1.47,0,2.71.21,3.74.62Z"/><path d="m357.94,95.77c0,1.23.04,2.23.11,3.02h-.84c-.2-1.89-.44-3.29-.73-4.21-.29-.92-.81-1.59-1.54-2.02-.73-.43-1.86-.64-3.37-.64h-1.98v20.92c0,1.03.1,1.78.29,2.24.2.47.54.78,1.03.96.49.17,1.28.28,2.38.33v.74c-1.27-.07-3.07-.11-5.39-.11-2.44,0-4.25.04-5.43.11v-.74c1.1-.05,1.89-.16,2.38-.33.49-.17.83-.49,1.03-.96.2-.47.29-1.21.29-2.24v-20.92h-1.98c-1.52,0-2.64.21-3.37.64-.73.43-1.25,1.1-1.54,2.02-.29.92-.54,2.32-.73,4.21h-.84c.07-.78.11-1.79.11-3.02,0-1.4-.09-2.97-.26-4.71,2.03.07,5.48.11,10.34.11s8.27-.04,10.3-.11c-.17,1.74-.26,3.31-.26,4.71Z"/><path d="m447.19,91.8c-.88.05-1.52.15-1.93.29-.4.15-.68.43-.82.85-.15.42-.22,1.09-.22,2.02v18.24c0,.93.07,1.61.22,2.02.15.42.42.69.82.83.4.13,1.05.2,1.93.2h2.68c1.52,0,2.67-.21,3.47-.64.79-.43,1.38-1.12,1.74-2.08.37-.96.64-2.34.81-4.16h.84c-.07.76-.11,1.77-.11,3.02,0,1.4.09,2.97.26,4.71-1.66-.07-4.46-.11-8.4-.11-4.69,0-8.24.04-10.63.11v-.74c.88-.05,1.52-.15,1.93-.29.4-.15.68-.43.83-.85.15-.42.22-1.09.22-2.02v-18.24c0-.93-.07-1.61-.22-2.02-.15-.42-.42-.7-.83-.85-.4-.15-1.04-.24-1.93-.29v-.74c1.03.07,2.59.11,4.69.11,1.96,0,3.51-.04,4.66-.11v.74Z"/><path d="m516.28,91.8c-.86.05-1.49.18-1.91.39-.42.21-.7.55-.84,1.03s-.22,1.18-.22,2.11v11.07c0,1.77-.12,3.28-.35,4.54-.23,1.26-.62,2.35-1.15,3.25-.61,1.05-1.51,1.89-2.7,2.5-1.19.61-2.52.92-4.02.92-2.69,0-4.74-.66-6.16-1.99-1.08-1-1.8-2.14-2.16-3.42-.37-1.27-.55-3.17-.55-5.7v-11.55c0-.93-.07-1.61-.22-2.02-.15-.42-.42-.7-.83-.85-.4-.15-1.04-.24-1.93-.29v-.74c1.03.07,2.59.11,4.69.11,1.98,0,3.53-.04,4.66-.11v.74c-.88.05-1.52.15-1.93.29-.4.15-.68.43-.82.85-.15.42-.22,1.09-.22,2.02v12.17c0,1.96.13,3.59.4,4.89.27,1.3.83,2.34,1.67,3.13.84.79,2.08,1.18,3.72,1.18,2.59,0,4.41-.83,5.46-2.5,1.05-1.67,1.58-4.01,1.58-7.02v-11.47c0-1.32-.24-2.23-.72-2.72-.48-.49-1.35-.76-2.62-.81v-.74c.88.07,2.13.11,3.74.11,1.47,0,2.6-.04,3.41-.11v.74Z"/><path d="m576.24,91.8c-.86.05-1.49.18-1.91.39-.42.21-.7.55-.84,1.03-.15.48-.22,1.18-.22,2.11v21.95h-.84l-15.4-23.87v19.42c0,.96.08,1.67.24,2.13.16.47.47.8.94,1.01.46.21,1.19.34,2.16.39v.74c-.88-.07-2.13-.11-3.74-.11-1.47,0-2.6.04-3.41.11v-.74c.86-.05,1.49-.18,1.91-.39.42-.21.7-.55.84-1.03.15-.48.22-1.18.22-2.11v-17.87c0-.93-.07-1.61-.22-2.02-.15-.42-.42-.7-.83-.85-.4-.15-1.04-.24-1.93-.29v-.74c.81.07,1.94.11,3.41.11,1.1,0,2.05-.04,2.86-.11l12.94,20.01v-15.74c0-.96-.08-1.67-.24-2.13-.16-.47-.47-.8-.94-1.01-.46-.21-1.19-.34-2.16-.39v-.74c.88.07,2.13.11,3.74.11,1.47,0,2.6-.04,3.41-.11v.74Z"/><path d="m635.06,116.37v.74c-.98-.07-2.29-.11-3.92-.11-2.1,0-3.67.04-4.69.11v-.74c.93-.05,1.59-.17,2-.35.4-.18.6-.52.6-1.01,0-.42-.15-.99-.44-1.73l-2.24-6.03h-8.87l-1.5,3.9c-.49,1.32-.73,2.33-.73,3.02,0,.76.26,1.31.79,1.65.53.34,1.33.53,2.4.55v.74c-1.39-.07-2.8-.11-4.22-.11-1.1,0-2.02.04-2.75.11v-.74c1.22-.29,2.19-1.36,2.9-3.2l8.62-22.28h.59l8.95,23.13c.59,1.52,1.43,2.3,2.53,2.35Zm-8.98-9.86l-4.11-11-4.18,11h8.29Z"/><path d="m692.7,115.26c-.56.83-1.12,1.43-1.69,1.8-.56.37-1.31.55-2.24.55-1,0-1.83-.29-2.48-.88s-1.13-1.62-1.45-3.09l-.81-3.68c-.29-1.27-.57-2.26-.82-2.94-.26-.69-.64-1.24-1.15-1.65-.51-.42-1.23-.62-2.16-.62h-3.48v8.46c0,.93.07,1.61.22,2.02.15.42.42.7.82.85s1.04.25,1.93.29v.74c-1.12-.07-2.68-.11-4.66-.11-2.1,0-3.67.04-4.69.11v-.74c.88-.05,1.52-.15,1.93-.29.4-.15.68-.43.82-.85.15-.42.22-1.09.22-2.02v-18.24c0-.93-.07-1.61-.22-2.02-.15-.42-.42-.7-.82-.85-.4-.15-1.05-.24-1.93-.29v-.74c1.03.07,2.52.11,4.47.11l3.96-.04c.46-.02.99-.04,1.58-.04,2.84,0,5.02.59,6.55,1.78,1.53,1.19,2.29,2.73,2.29,4.62,0,.96-.23,1.92-.68,2.89-.45.97-1.21,1.84-2.27,2.61-1.06.77-2.45,1.29-4.16,1.56l.44.07c1.61.27,2.79.76,3.52,1.47.73.71,1.27,1.84,1.61,3.38l.92,3.75c.24,1.13.5,1.91.77,2.35.27.44.63.66,1.1.66.42,0,.76-.11,1.05-.33.28-.22.6-.58.97-1.07l.55.4Zm-15.27-23.2c-.38.17-.64.48-.79.92-.15.44-.22,1.1-.22,1.99v9.05h2.46c2.42,0,4.08-.54,4.99-1.62.9-1.08,1.36-2.57,1.36-4.49,0-2.01-.48-3.53-1.43-4.56-.95-1.03-2.51-1.54-4.66-1.54-.76,0-1.33.09-1.71.26Z"/><path d="m789.22,105.68c1.15,1.19,1.72,2.62,1.72,4.28,0,1.4-.36,2.64-1.06,3.71-.71,1.08-1.72,1.92-3.04,2.52-1.32.6-2.88.9-4.69.9-.66,0-1.22-.01-1.69-.04-1.56-.05-3.11-.07-4.62-.07-2.01,0-3.52.04-4.55.11v-.74c.88-.05,1.52-.15,1.93-.29.4-.15.68-.43.82-.85.15-.42.22-1.09.22-2.02v-18.24c0-.93-.07-1.61-.22-2.02-.15-.42-.42-.7-.82-.85-.4-.15-1.05-.24-1.93-.29v-.74c1.03.07,2.52.11,4.47.11l3.96-.04c.46-.02.99-.04,1.58-.04,2.49,0,4.41.53,5.74,1.58,1.33,1.05,2,2.45,2,4.19,0,1.42-.45,2.7-1.34,3.82-.89,1.13-2.3,1.99-4.24,2.57v.07c2.69.37,4.61,1.15,5.76,2.33Zm-10.54-13.62c-.38.17-.64.48-.79.92-.15.44-.22,1.1-.22,1.99v8.31h2.46c2,0,3.4-.55,4.2-1.64.79-1.09,1.19-2.54,1.19-4.36s-.4-3.21-1.21-4.12c-.81-.91-2.12-1.36-3.92-1.36-.76,0-1.33.09-1.71.26Zm8.6,17.76c0-1.94-.52-3.41-1.56-4.41-1.04-1-2.69-1.51-4.97-1.51h-3.08v9.3c0,.88.07,1.53.22,1.95.15.42.41.71.79.86.38.16.96.24,1.74.24,4.57,0,6.86-2.15,6.86-6.44Z"/><path d="m850.05,116.37v.74c-.98-.07-2.29-.11-3.92-.11-2.1,0-3.67.04-4.69.11v-.74c.93-.05,1.6-.17,2-.35.4-.18.6-.52.6-1.01,0-.42-.15-.99-.44-1.73l-2.24-6.03h-8.87l-1.5,3.9c-.49,1.32-.73,2.33-.73,3.02,0,.76.26,1.31.79,1.65.52.34,1.33.53,2.4.55v.74c-1.39-.07-2.8-.11-4.22-.11-1.1,0-2.02.04-2.75.11v-.74c1.22-.29,2.19-1.36,2.9-3.2l8.62-22.28h.59l8.95,23.13c.59,1.52,1.43,2.3,2.53,2.35Zm-8.98-9.86l-4.11-11-4.18,11h8.29Z"/><path d="m896.17,91.01c.62.23,1.26.57,1.93,1.01.54.34.95.52,1.25.52.22,0,.39-.13.51-.39.12-.26.22-.67.29-1.23h.84c-.12,1.42-.18,3.92-.18,7.5h-.84c-.15-1.99-.72-3.66-1.71-5.02-.99-1.36-2.43-2.04-4.31-2.04-1.32,0-2.4.4-3.23,1.19-.83.8-1.25,1.82-1.25,3.07,0,.93.21,1.74.64,2.43.43.69.97,1.27,1.63,1.77.66.49,1.6,1.12,2.82,1.88l1.06.66c1.54.96,2.76,1.8,3.65,2.52.89.72,1.61,1.55,2.15,2.48.54.93.81,2.02.81,3.27,0,2.23-.73,3.95-2.2,5.17-1.47,1.21-3.32,1.82-5.57,1.82-1.17,0-2.13-.12-2.88-.37-.75-.24-1.46-.58-2.15-.99-.54-.34-.95-.52-1.25-.52-.22,0-.39.13-.51.39-.12.26-.22.67-.29,1.23h-.84c.1-1.35.15-4.29.15-8.83h.84c.17,2.48.78,4.49,1.83,6.03,1.05,1.54,2.66,2.32,4.84,2.32,1.32,0,2.44-.41,3.37-1.23.93-.82,1.39-2.04,1.39-3.66,0-1.37-.46-2.54-1.38-3.49-.92-.96-2.37-2.03-4.35-3.24-1.44-.88-2.61-1.67-3.5-2.35-.89-.69-1.62-1.51-2.18-2.48-.56-.97-.84-2.1-.84-3.4,0-2.06.66-3.63,1.98-4.73,1.32-1.09,2.96-1.64,4.91-1.64,1.08,0,1.93.12,2.55.35Z"/><path d="m959,117.1c-1.66-.07-4.46-.11-8.4-.11-4.69,0-8.24.04-10.63.11v-.74c.88-.05,1.52-.15,1.93-.29.4-.15.68-.43.82-.85.15-.42.22-1.09.22-2.02v-18.24c0-.93-.07-1.61-.22-2.02-.15-.42-.42-.7-.82-.85-.4-.15-1.05-.24-1.93-.29v-.74c2.4.07,5.94.11,10.63.11,3.59,0,6.15-.04,7.66-.11-.17,1.62-.26,3.06-.26,4.34,0,.96.04,1.72.11,2.28h-.84c-.17-1.59-.39-2.78-.66-3.55-.27-.77-.72-1.34-1.36-1.69-.64-.35-1.6-.53-2.9-.53h-3.04c-.88,0-1.52.07-1.93.2s-.68.41-.82.83c-.15.42-.22,1.09-.22,2.02v8.68h2.42c.86,0,1.52-.2,1.98-.61.46-.4.78-.88.93-1.43.16-.55.29-1.24.38-2.08l.11-.74h.84c-.07,1.03-.11,2.18-.11,3.46v1.77c0,1.25.07,2.99.22,5.22h-.84c-.02-.17-.1-.77-.22-1.78-.12-1.02-.46-1.78-1.01-2.3-.55-.51-1.31-.77-2.29-.77h-2.42v8.83c0,.93.07,1.61.22,2.02.15.42.42.69.82.83s1.04.2,1.93.2h2.68c1.52,0,2.67-.2,3.47-.61.79-.4,1.38-1.05,1.74-1.95.37-.9.64-2.21.81-3.95h.84c-.07.66-.11,1.54-.11,2.65,0,1.4.08,2.97.26,4.71Z"/></svg>